<svg id="Layer_1" data-name="Layer 1" xmlns="http://www.w3.org/2000/svg" viewBox="0 0 50 50"><defs><style>.cls-1{fill:#0e6a5f;}</style></defs><path class="cls-1" d="M21,48.29a4.63,4.63,0,0,1-.65-.1,23.16,23.16,0,0,1-11.59-6,22.93,22.93,0,0,1-7-13.59c-.1-.76-.2-1.52-.29-2.28a1.62,1.62,0,0,1,0-.22c0-.3,0-.59,0-.89a10,10,0,0,1,.14-2c.09-.52.14-1.05.2-1.58a19.1,19.1,0,0,1,.87-3.79A23.59,23.59,0,0,1,18.74,2.34a24.58,24.58,0,0,1,3.6-.69,22.53,22.53,0,0,1,3.85-.11A23,23,0,0,1,41.42,8.15a24.06,24.06,0,0,1,4.76,6.48,22.66,22.66,0,0,1,2,6.2c.17,1,.27,1.93.4,2.89a5.31,5.31,0,0,1,0,.69v.66a9,9,0,0,1-.11,1.72,16.71,16.71,0,0,0-.23,1.73A16.83,16.83,0,0,1,47.54,32a26.39,26.39,0,0,1-2.89,6.21A22,22,0,0,1,36,45.94,28.41,28.41,0,0,1,30,48.13a15.76,15.76,0,0,1-1.67.29l-.31,0c-.09,0-.12,0-.12-.1s0-.21,0-.31c0-2.71,0-5.42,0-8.13V31.08c0-.22,0-.43,0-.65s.1-.36.39-.37h4.87c.33,0,.43-.1.48-.43.09-.65.17-1.3.25-1.95.11-.84.23-1.68.33-2.52.07-.53.13-1.07.2-1.6a.3.3,0,0,0,0-.16.64.64,0,0,0-.24,0H28.1c-.25,0-.25,0-.24-.24,0-.87,0-1.74.07-2.61s.05-1.74.13-2.61a1.82,1.82,0,0,1,1.08-1.54,3.47,3.47,0,0,1,1.26-.3c.93-.08,1.86-.05,2.79-.06.38,0,.75,0,1.13,0s.37-.09.37-.37c0-1.72,0-3.44,0-5.16,0-.34-.12-.45-.46-.48-.86-.07-1.72-.16-2.59-.2a16.16,16.16,0,0,0-4.6.28,7.24,7.24,0,0,0-5.39,4.79,9.55,9.55,0,0,0-.53,2.48c-.07.68-.05,1.37-.06,2.05,0,1.05,0,2.1,0,3.15,0,.23,0,.47,0,.71s0,.13-.13.12h-5.2c-.33,0-.34,0-.34.35s0,.92,0,1.37v4.39c0,.49.06.55.56.55h4.41l.57,0c.1,0,.14,0,.13.13V48A.62.62,0,0,1,21,48.29Z"/></svg>