<svg id="Layer_1" data-name="Layer 1" xmlns="http://www.w3.org/2000/svg" viewBox="0 0 50 50"><defs><style>.cls-1{fill:#0e6a5f;}</style></defs><path class="cls-1" d="M47.86,24.73c0,2.83,0,5.65,0,8.48,0,.46-.07.91-.11,1.36s-.11,1.12-.16,1.68a14.84,14.84,0,0,1-.8,3.84,12.64,12.64,0,0,1-1.62,3.06,11.85,11.85,0,0,1-1.83,2,13.35,13.35,0,0,1-1.42,1,11.91,11.91,0,0,1-2,1,13,13,0,0,1-3.24.85c-.82.11-1.64.18-2.47.22-.62,0-1.25,0-1.87.1-1.14.09-2.28.07-3.41.07-3.25,0-6.49,0-9.74,0-.5,0-1,0-1.48-.08H17.6c-.87,0-1.75-.08-2.62-.13a17.52,17.52,0,0,1-2.7-.36,11.23,11.23,0,0,1-1.8-.52,12.15,12.15,0,0,1-2.07-1A13.19,13.19,0,0,1,6.67,45.1,11.67,11.67,0,0,1,5,43.33a12.3,12.3,0,0,1-2.14-4.57,17.32,17.32,0,0,1-.41-2.58c-.1-1-.14-1.91-.2-2.86a.49.49,0,0,1,0-.12c0-1.1,0-2.21-.06-3.31-.06-2.94,0-5.88,0-8.81,0-1.21,0-2.42,0-3.63,0-.87,0-1.74.13-2.61a22,22,0,0,1,.57-3.78A13.49,13.49,0,0,1,4.06,8.15,12.27,12.27,0,0,1,5.65,5.89c.22-.26.48-.49.73-.74A12.49,12.49,0,0,1,7.94,3.91c.19-.13.4-.24.6-.36a11.74,11.74,0,0,1,4.09-1.43c.8-.12,1.59-.24,2.4-.29.62-.05,1.25-.09,1.87-.11,1.12-.05,2.24-.06,3.36-.1,1.64,0,3.28,0,4.92,0,1.21,0,2.42,0,3.63,0s2.49,0,3.74,0c.91,0,1.82.07,2.74.15a24.87,24.87,0,0,1,3.22.54,10.42,10.42,0,0,1,1.66.55,12.62,12.62,0,0,1,1.86,1,11.74,11.74,0,0,1,2.37,2,12.34,12.34,0,0,1,2.66,4.8,17.75,17.75,0,0,1,.62,3.39c0,.54.11,1.09.16,1.63a2.29,2.29,0,0,1,0,.37C47.86,19,47.86,21.84,47.86,24.73Zm-4,.37c0-1.58,0-3.16,0-4.74,0-.88,0-1.77,0-2.65,0-.64-.05-1.27-.09-1.9,0-.81-.13-1.62-.23-2.42a8.63,8.63,0,0,0-1-3.21,7.5,7.5,0,0,0-2-2.32,8,8,0,0,0-1.58-.92,8.47,8.47,0,0,0-1.68-.55A19.78,19.78,0,0,0,35,6.06C34.41,6,33.79,6,33.18,6c-.91,0-1.82,0-2.74,0-1.58,0-3.16,0-4.74,0-.86,0-1.74,0-2.61,0-1.13,0-2.27,0-3.4,0s-2.1.05-3.14.13c-.85.07-1.71.11-2.56.19a8.17,8.17,0,0,0-3.09.87A7.67,7.67,0,0,0,9.05,8.46a7.54,7.54,0,0,0-1.3,1.73,8.58,8.58,0,0,0-1,3.16c-.11.85-.17,1.7-.24,2.55s-.1,1.71-.1,2.56c0,3.2,0,6.39,0,9.59,0,1.64,0,3.29,0,4.93a25,25,0,0,0,.28,3.77,9.89,9.89,0,0,0,1,3.17A7.05,7.05,0,0,0,10,42.42a8.94,8.94,0,0,0,3.22,1.37,20.55,20.55,0,0,0,3.67.35l2.1,0,4.4.09c.63,0,1.27,0,1.9,0s1.33,0,2,0,1.55,0,2.32-.06c1.11-.05,2.21-.07,3.32-.1L34.11,44c.8-.06,1.6-.1,2.4-.2A8,8,0,0,0,39,43.13,7.6,7.6,0,0,0,41.68,41a8.73,8.73,0,0,0,1.12-1.88,11.68,11.68,0,0,0,.83-3.45c.12-1,.14-2,.17-3,0-1.24,0-2.49,0-3.74S43.85,26.4,43.85,25.1Z"/><path class="cls-1" d="M25.18,37A11.37,11.37,0,0,1,21,36.32a11.55,11.55,0,0,1-3.08-1.73,12.78,12.78,0,0,1-1.89-1.86,11.91,11.91,0,0,1-1.45-2.26,12.33,12.33,0,0,1-1.24-6,12,12,0,0,1,1-4.2,11.77,11.77,0,0,1,4-5,13.1,13.1,0,0,1,1.84-1.09,11,11,0,0,1,3.58-1,10.75,10.75,0,0,1,1.88-.07,11.36,11.36,0,0,1,4,.9,10.42,10.42,0,0,1,1.83,1A12,12,0,0,1,34,17.23a11.31,11.31,0,0,1,1.14,1.6,12.08,12.08,0,0,1,1.57,4.51A12.29,12.29,0,0,1,35.8,30,12.1,12.1,0,0,1,34,32.81a12.4,12.4,0,0,1-1.23,1.28,11.76,11.76,0,0,1-3.18,2,11,11,0,0,1-3.08.83A8.56,8.56,0,0,1,25.18,37Zm-.11-19.74c-.23,0-.46,0-.69,0a7.56,7.56,0,0,0-3,.91A7.72,7.72,0,0,0,19.27,20a7.82,7.82,0,0,0-1.33,2.31,7.93,7.93,0,0,0-.45,3.58,7.66,7.66,0,0,0,.88,2.88,7.93,7.93,0,0,0,2.14,2.54,7.51,7.51,0,0,0,1.52.9,7.31,7.31,0,0,0,4,.59,7,7,0,0,0,2.51-.8,7.66,7.66,0,0,0,1.56-1.09,7.87,7.87,0,0,0,2.06-3,8.32,8.32,0,0,0,.52-2.66,8.45,8.45,0,0,0-.21-2,7.86,7.86,0,0,0-2.05-3.73A7.59,7.59,0,0,0,28.36,18,6.82,6.82,0,0,0,25.07,17.29Z"/><path class="cls-1" d="M40,12.53a2.76,2.76,0,0,1-2.18,2.77,2.56,2.56,0,0,1-2.24-.56,2.8,2.8,0,0,1-.87-3.16,2.66,2.66,0,0,1,1.13-1.39,2.55,2.55,0,0,1,2.33-.27A2.64,2.64,0,0,1,40,12,2,2,0,0,1,40,12.53Z"/></svg>