<svg id="Layer_1" data-name="Layer 1" xmlns="http://www.w3.org/2000/svg" viewBox="0 0 50 75"><defs><style>.cls-1{fill:#106b5e;}.cls-2{fill:#ec2428;}.cls-3{fill:#ec2328;}.cls-4{fill:#ec2227;}.cls-5{fill:#ec2327;}.cls-6{fill:#ec2427;}.cls-7{fill:#9e5b3f;}.cls-8{fill:#4c6956;}.cls-9{fill:#77614a;}</style></defs><path class="cls-1" d="M47.31,52.39A22.53,22.53,0,0,1,29.63,71.16,22,22,0,0,1,9.71,65.6,21.8,21.8,0,0,1,2.6,51c-.05-.52-.05-1-.1-1.57,0-.33.12-.45.43-.44H15.78c.64,0,.66,0,.69.68a8.47,8.47,0,0,0,16.82.79,7.46,7.46,0,0,0,.1-1.06c0-.33.17-.43.46-.41h13c.21,0,.47-.08.63.16A25.54,25.54,0,0,1,47.31,52.39Z"/><path class="cls-1" d="M31.28,3.43a2,2,0,0,1,.55-.06,1.77,1.77,0,0,1,.84,1.07c.47,1.17.78,2.39,1.18,3.59A15.44,15.44,0,0,0,39,15.44a11.35,11.35,0,0,1,4.36,7.22,10,10,0,0,1-3.27,9.64c-.16.15-.35.37-.59.14s0-.42.09-.6a10.26,10.26,0,0,0,1.88-7,7.62,7.62,0,0,0-3.29-6c-1.64-1.09-3.2-2.31-4.74-3.54-.1-.08-.2-.24-.35-.17s-.08.25-.08.38c0,2.84,0,5.68,0,8.51q0,5.07,0,10.14c0,3.1,0,6.19-.06,9.29q0,3-.08,6A7.95,7.95,0,1,1,24,41.19a8,8,0,0,1,5.35,1.29c.08.05.14.14.25.1s.08-.19.08-.28q-.08-5.29-.17-10.59c0-2.48-.09-5-.12-7.45,0-3.34-.06-6.69-.09-10,0-2.81,0-5.61-.06-8.42,0-1.41.32-1.85,1.66-2.28Z"/><path class="cls-2" d="M47.25,42.49v5c0,.81-.06.89-.75.88-.52,0-.65-.17-.65-.92V38.94q0-.9,0-1.8c0-.36.12-.53.51-.53.92,0,.92,0,.92.89Z"/><path class="cls-3" d="M6.73,42.41c0-1.73,0-3.46,0-5.18,0-.59,0-.61.63-.61s.79.07.79.65V47.48c0,1,0,1-1,.88-.44,0-.47-.31-.47-.64Z"/><path class="cls-4" d="M16.41,42.54c0,1.77,0,3.54,0,5.32,0,.38-.13.51-.51.49-1,0-.92.14-.92-.91q0-5.09,0-10.17c0-.22-.11-.54.18-.61a1.82,1.82,0,0,1,1.13,0c.17.08.1.31.1.47Z"/><path class="cls-5" d="M39,42.5c0,1.77,0,3.55,0,5.32,0,.44-.17.56-.56.56-.66,0-.8-.06-.83-.52s0-.8,0-1.2c0-3.14,0-6.29,0-9.43,0-.2-.11-.5.16-.57a1.63,1.63,0,0,1,1.13.05c.17.09.1.34.1.52C39,39,39,40.75,39,42.5Z"/><path class="cls-3" d="M35.46,43.24V38.8c0-.61,0-.64.78-.63s.67,0,.67.63q0,4.48,0,9c0,.59,0,.61-.74.61s-.7-.05-.7-.61C35.46,46.26,35.46,44.75,35.46,43.24Z"/><path class="cls-5" d="M14.36,43.36c0,1.49,0,3,0,4.48,0,.44-.19.56-.58.55-.82,0-.87-.07-.87-.87V38.78c0-.35,0-.63.5-.62.75,0,.93.09.94.62C14.37,40.31,14.36,41.83,14.36,43.36Z"/><path class="cls-2" d="M4.66,43.28V38.7c0-.35.13-.57.52-.53s.82-.12.88.47c0,.14,0,.28,0,.42q0,4.32,0,8.65c0,.21.11.53-.16.61a1.44,1.44,0,0,1-1.08,0c-.2-.11-.15-.36-.15-.55V43.28Z"/><path class="cls-5" d="M39.63,43.15c0-1.45,0-2.9,0-4.35,0-.38,0-.66.53-.64.75,0,.86.07.86.63q0,4.41,0,8.82a.74.74,0,0,1-1.15.71c-.3-.14-.27-.43-.27-.69C39.62,46.14,39.63,44.64,39.63,43.15Z"/><path class="cls-4" d="M10.21,43.29c0,1.52,0,3.05,0,4.57,0,.39-.14.53-.49.52H9.41c-.44,0-.61-.18-.61-.65,0-1.8,0-3.6,0-5.4,0-1.21,0-2.41,0-3.61,0-.4.13-.55.53-.55.82,0,.88,0,.88.88Z"/><path class="cls-4" d="M45.16,43.24c0,1.53,0,3,0,4.58,0,.43-.17.55-.58.54-.87,0-.83.11-.83-.82V38.79c0-.22-.1-.52.21-.59a1.55,1.55,0,0,1,1.08.07c.14.08.1.25.1.39v4.58Z"/><path class="cls-6" d="M33.4,44.45c0-1.14,0-2.28,0-3.43,0-.38.15-.51.52-.52.9,0,.94,0,.94.89v6.2c0,.25.09.6-.16.71a1.57,1.57,0,0,1-1.09,0c-.23-.06-.2-.28-.2-.46Z"/><path class="cls-5" d="M43.13,44.4c0,1.14,0,2.28,0,3.42,0,.39-.13.54-.54.54-.93,0-.93,0-.93-.92V41.19c0-.23-.08-.55.22-.63a1.63,1.63,0,0,1,1.13,0c.16.07.1.27.1.42V44.4Z"/><path class="cls-2" d="M10.86,44.34c0-1.1,0-2.19,0-3.29,0-.35.08-.54.48-.55.73,0,.89,0,.9.52,0,1.44,0,2.87,0,4.3,0,.8,0,1.6,0,2.4,0,.41-.08.68-.58.67-.66,0-.83-.11-.84-.68,0-1,0-2,0-3.05Z"/><path class="cls-5" d="M4,44.5c0,1.12,0,2.24,0,3.37,0,.43-.21.5-.57.51-.64,0-.8-.08-.83-.52,0-.28,0-.55,0-.83,0-2,0-4,0-6,0-.43.15-.57.57-.56.67,0,.82.09.82.57,0,1.14,0,2.28,0,3.42Z"/><path class="cls-4" d="M22.15,46.2c-.13,1.34-.13,2.68-.39,4,0,.11-.05.21-.07.31s-.17.4-.43.41a.52.52,0,0,1-.53-.37,9.26,9.26,0,0,1-.36-1.66,1,1,0,0,0-.2-.56,2.36,2.36,0,0,0-.32.8c-.29.67-.6.78-1.19.37a1.6,1.6,0,0,0-1.1-.25c-.24,0-.47,0-.47-.3s.24-.27.44-.27c.53,0,1.08-.09,1.51.39.15.16.24,0,.28-.17s.19-.55.3-.82a.61.61,0,0,1,.61-.41c.32,0,.46.22.55.48.2.57.22,1.18.37,1.77.19-.08.15-.26.16-.39l.36-5a4.63,4.63,0,0,1,.2-1.17.4.4,0,0,1,.41-.32c.2,0,.28.15.35.32a5.43,5.43,0,0,1,.22,1.55c.13,2,.24,4,.36,6,0,.14-.05.31.12.41a.11.11,0,0,1,0,.12s0-.06,0-.09a1.62,1.62,0,0,1,0-.49c.12-1.63.15-3.27.39-4.89a3.45,3.45,0,0,1,.11-.54c.06-.21.15-.41.43-.39s.37.2.42.42A13.36,13.36,0,0,1,25,47.17c.09,1,.18,2,.28,3,0,.08,0,.19.15.28.08-.59.15-1.16.23-1.72a3.8,3.8,0,0,1,.18-.95.59.59,0,0,1,.57-.46.57.57,0,0,1,.53.45,7.91,7.91,0,0,1,.28,1.45c0,.14,0,.35.2.36s.16-.2.19-.33c.09-.33.16-.66.25-1a.56.56,0,0,1,.54-.44.65.65,0,0,1,.64.38c.1.24.19.49.28.74s.21.23.36,0,.15-.23.24-.34a.65.65,0,0,1,.93-.21,2.89,2.89,0,0,0,1.48.26c.17,0,.41,0,.42.23s-.2.3-.41.31A2.66,2.66,0,0,1,30.71,49a.28.28,0,0,0-.43.11,4.33,4.33,0,0,1-.27.37.67.67,0,0,1-1.15-.13,1.19,1.19,0,0,0-.08-.16c-.14-.21-.07-.63-.36-.62s-.15.42-.22.64-.11.39-.18.58a.64.64,0,0,1-.62.47.63.63,0,0,1-.63-.52c-.12-.49-.2-1-.3-1.49-.06-.08-.11-.08-.16,0L26,50.49a3.58,3.58,0,0,1-.14.54.52.52,0,0,1-.5.41c-.25,0-.37-.18-.46-.39a4.53,4.53,0,0,1-.23-1.41c-.09-.94-.16-1.87-.23-2.81,0,0,0-.11-.09-.28a22,22,0,0,0-.24,2.55c-.08,1.22-.13,2.43-.3,3.64a4.75,4.75,0,0,1-.14.63.36.36,0,0,1-.37.29c-.2,0-.29-.14-.34-.32A5.86,5.86,0,0,1,22.71,52q-.16-2.92-.31-5.86c0-.32-.07-.65-.11-1a.25.25,0,0,1,0-.09c-.06,0,0,.1,0,.15A8.43,8.43,0,0,0,22.15,46.2Z"/><path class="cls-7" d="M22.14,45.1c0-.08,0-.15,0-.23s0-.2.11-.22.16.12.16.23v1.23c-.13-.16,0-.36-.1-.53a.51.51,0,0,1-.06-.43C22.3,45,22.14,45.17,22.14,45.1Z"/><path class="cls-8" d="M22.14,45.1c.06,0,.11-.22.16,0a2.09,2.09,0,0,1,0,.5c-.17.18,0,.45-.15.62Z"/><path class="cls-7" d="M23.41,50.92a2.19,2.19,0,0,1-.06.91c-.21-.18,0-.31,0-.45S23.31,51.06,23.41,50.92Z"/><path class="cls-9" d="M26.31,48.25c0-.09-.07-.23.09-.23s.07.14.07.23Z"/></svg>