<svg id="Layer_1" data-name="Layer 1" xmlns="http://www.w3.org/2000/svg" viewBox="0 0 50 50"><defs><style>.cls-1{fill:#0e6b5f;}</style></defs><path class="cls-1" d="M3.36,19.4a10,10,0,0,0,4.2,1.12c0-.1-.11-.13-.16-.18A13.29,13.29,0,0,1,5,17.71a8.87,8.87,0,0,1-1.5-6.24,13.2,13.2,0,0,1,1.1-3.79.21.21,0,0,1,0-.06.49.49,0,0,1,.18.17,31,31,0,0,0,4.75,4.48A26.67,26.67,0,0,0,19.78,17a29,29,0,0,0,3.82.62l.85.08c.16,0,.17,0,.16-.15,0-.46,0-.93-.07-1.39a9.11,9.11,0,0,1,.9-4.9,9.65,9.65,0,0,1,15.11-3,3.81,3.81,0,0,1,.36.33.72.72,0,0,0,.74.19,19.7,19.7,0,0,0,4.4-1.56c.41-.19.8-.41,1.24-.65a10,10,0,0,1-4,5.19,1,1,0,0,0,.35,0,18.15,18.15,0,0,0,4.57-1.21l.16-.06s.08,0,.11.05a.07.07,0,0,1,0,.12l0,.05c-.65.76-1.26,1.55-2,2.27a18.47,18.47,0,0,1-1.6,1.46l-.74.64a.9.9,0,0,0-.33.76,28.49,28.49,0,0,1-.2,4,26.59,26.59,0,0,1-2.53,8.72,29,29,0,0,1-7.35,9.52,24.79,24.79,0,0,1-9.55,5,29.1,29.1,0,0,1-4.43.85,27.83,27.83,0,0,1-4.28.2A26.85,26.85,0,0,1,4.24,41.39,23.7,23.7,0,0,1,2,40.15l-.11-.08a.4.4,0,0,1,.18,0c.66,0,1.31,0,2,0a19.86,19.86,0,0,0,10.55-3.34c.35-.23.69-.48,1-.72.05,0,.11-.06.14-.14l-.8-.1a10.48,10.48,0,0,1-4.2-1.49,9.66,9.66,0,0,1-3.27-3.54,12.81,12.81,0,0,1-.67-1.4.13.13,0,0,1,0-.14l.49,0a11.52,11.52,0,0,0,2.49,0A6.08,6.08,0,0,0,10.86,29c0-.08-.09-.07-.15-.08a10.35,10.35,0,0,1-3.48-1.7,9.73,9.73,0,0,1-3.69-5.78A9.4,9.4,0,0,1,3.36,19.4Z"/></svg>