<svg xmlns="http://www.w3.org/2000/svg" viewBox="0 0 52.18 36.52"><defs><style>.cls-1{fill:#0e6b5f;}</style></defs><g id="Layer_2" data-name="Layer 2"><g id="Layer_1-2" data-name="Layer 1"><path class="cls-1" d="M24.23,36.51c-1.6,0-3.21,0-4.82,0-.85,0-1.7,0-2.55-.08l-1.63-.08-2.5-.15-.76,0c-.82-.06-1.64-.1-2.46-.14a18.72,18.72,0,0,1-3.73-.52A6.88,6.88,0,0,1,3,34.14,6,6,0,0,1,1.4,32a8.33,8.33,0,0,1-.61-2.34C.68,28.79.57,28,.47,27.13.4,26.52.35,25.91.3,25.3S.19,24.05.14,23.43c0-.24,0-.48,0-.71,0-.46,0-.91-.06-1.37C0,19.49,0,17.63,0,15.78,0,14.89.07,14,.1,13.1c0-.65.07-1.31.12-2A30.81,30.81,0,0,1,1,6,7.17,7.17,0,0,1,2.32,3.26a6.17,6.17,0,0,1,2.77-2A7.82,7.82,0,0,1,7.23.85L8.92.7l1.3-.09L11.72.5l.7,0,1.73-.1L16.61.23l2-.08c.58,0,1.16,0,1.73,0,.83,0,1.67,0,2.49,0,1,0,2,0,3,0,.38,0,.76,0,1.14,0,.61,0,1.22,0,1.83,0s1.2,0,1.8,0,1.24,0,1.86,0,1,0,1.49,0l2.77.08c.67,0,1.33,0,2,.08s1.48.08,2.22.14l1.5.14,2,.22a16,16,0,0,1,1.82.27,6.46,6.46,0,0,1,3.32,1.8,6.37,6.37,0,0,1,1.5,2.62,12.73,12.73,0,0,1,.36,1.84c.13.82.24,1.65.32,2.49.07.64.14,1.28.19,1.93.06.88.12,1.77.16,2.66.08,1.63.08,3.25.07,4.88,0,.83,0,1.66,0,2.49s0,1.48-.08,2.22c-.08,1.44-.18,2.87-.4,4.29a18.91,18.91,0,0,1-.57,2.79,6.35,6.35,0,0,1-3.3,4,6.63,6.63,0,0,1-2.23.63L43.28,36l-2,.19c-.76.07-1.52.1-2.28.15H39c-.85,0-1.69,0-2.53.06s-1.4,0-2.1,0-1.34,0-2,0c-.92,0-1.84,0-2.76,0C27.78,36.55,26,36.51,24.23,36.51ZM34.51,18.33l-.19-.12-4.16-2.4L25.4,13.08l-4.21-2.43c-.27-.15-.3-.22-.3.18q0,7.49,0,15a.56.56,0,0,0,0,.13c0,.19,0,.21.19.11h0l6-3.44,6.67-3.84Z"/></g></g></svg>