<svg id="Layer_1" data-name="Layer 1" xmlns="http://www.w3.org/2000/svg" xmlns:xlink="http://www.w3.org/1999/xlink" viewBox="0 0 1166.17 805.09"><defs><style>.cls-1,.cls-2{fill:#086c60;}.cls-1,.cls-15,.cls-6,.cls-7,.cls-8,.cls-9{isolation:isolate;}.cls-1,.cls-15,.cls-18{opacity:0.1;}.cls-3{fill:#454154;}.cls-4{fill:#141328;}.cls-5{fill:#fff;}.cls-6{fill:#f15b5b;}.cls-6,.cls-7,.cls-8{opacity:0.8;}.cls-7{fill:#ffd353;}.cls-8{fill:#8ec851;}.cls-15,.cls-19,.cls-9{fill:#010101;}.cls-9{opacity:0.05;}.cls-10{fill:#fbaa1d;}.cls-11{fill:#046c60;}.cls-12{fill:url(#linear-gradient);}.cls-13{fill:#f9bebf;}.cls-14{fill:#403e56;}.cls-16{fill:#e31e26;}.cls-17{fill:#333240;}</style><linearGradient id="linear-gradient" x1="785.44" y1="845.17" x2="938.52" y2="845.17" gradientTransform="matrix(1, 0, 0, -1, -16.91, 1457.63)" gradientUnits="userSpaceOnUse"><stop offset="0" stop-color="#818181" stop-opacity="0.25"/><stop offset="0.54" stop-color="#818181" stop-opacity="0.12"/><stop offset="1" stop-color="#818181" stop-opacity="0.1"/></linearGradient></defs><path class="cls-1" d="M659.62,109.64c-74.75.1-146.7-21.09-215.52-44.63S307,15.11,233.63,3.94C186.45-3.24,132.8-2.58,95.92,23.49,60.42,48.57,50.14,90.08,45.18,128.43c-3.73,28.85-5.45,59.13,8.52,85.52,9.7,18.32,26.3,33.42,38,50.88C132.54,325.57,108,403.16,68.29,465.31c-18.61,29.16-40.41,57.11-54.48,87.94S-6,619,8.32,649.47c14.22,30.16,46.34,52,80.81,67,70,30.42,151.5,36.94,230.81,39.45,175.56,5.57,351.46-5.79,526.89-17.15,64.92-4.2,130.13-8.43,193.71-20.6,35.3-6.75,71.65-16.77,96.68-38.73,31.77-27.88,38.27-73.4,15.15-106.12-38.77-54.88-141-65.23-168.8-124.61C968.24,416,981.46,378.53,1000.93,347c41.76-67.61,113.64-128.17,114.85-203.79.83-51.93-36.55-102.59-92.38-125.16C964.88-5.57,885.09.51,844.09,44.57,801.93,90,725.62,109.57,659.62,109.64Z"/><path class="cls-2" d="M992.53,645.39s-12.29-8.11-24.47-2.34c0,0,3.75,7.22,19.17,6.54Z"/><path class="cls-2" d="M994.09,645.82s3.74,14.24-5.64,23.93c0,0-5.64-5.87,0-20.25Z"/><path class="cls-2" d="M1009.37,632.15s-.91-12.11-28.26-8.09c0,0-.13,7.81,9.47,11.51S1004.58,636.15,1009.37,632.15Z"/><path class="cls-2" d="M1011.09,632.07s11.56,3.71,1.25,29.36c0,0-7.63-1.7-9-11.91S1006,635.79,1011.09,632.07Z"/><path class="cls-2" d="M1026.53,614.89S1028.1,595,1000.15,597c0,0-2,18,21.45,22.68Z"/><path class="cls-2" d="M1045,592.39s-3.83-22.59-31.77-15.86c0,0-.1,19.53,27.21,21.24Z"/><path class="cls-2" d="M1058.5,569.13s-6.42-22-34.1-15.42c0,0,6.59,19.79,32.26,19.48Z"/><path class="cls-2" d="M1071.32,546.41s-6.27-22.83-33-16c0,0,8.92,21.69,31.23,19.86Z"/><path class="cls-2" d="M1079.58,524.83s-4.82-27.92-29.74-21.74c0,0,7.24,25.4,27.91,25.81Z"/><path class="cls-2" d="M1087.33,498.76s-5.79-28.14-31-20c0,0,9.88,26.6,29.21,23.85Z"/><path class="cls-2" d="M1092.09,474.5s-9.19-28.15-28.68-27.39c0,0,9.39,29.73,27,33Z"/><path class="cls-2" d="M1095.17,450.82s-10-33.88-25.86-31.27c0,0,6.92,25.9,25.3,36.55Z"/><path class="cls-2" d="M1096.91,422.57s-9.38-28.23-25-29.36c0,0,6.38,27.78,24.69,36.7Z"/><path class="cls-2" d="M1098.8,396.21s-11.69-28.26-22-28.9c0,0,5.08,27.83,21,33.54Z"/><path class="cls-2" d="M1100.09,371.69s-7.19-30.69-17.52-33.24c0,0,1.41,25.11,16.48,35.54Z"/><path class="cls-2" d="M1104,339.57s-7.56-24.47-15.93-28.2c0,0,1.65,28.85,14,34.18Z"/><path class="cls-2" d="M1107.22,318.57l1.52-43.14s-15.65,32.52-2.65,50.71Z"/><path class="cls-2" d="M1119.3,275.66s11.27-31.5,14-33.26c0,0-22.1,20.44-19.94,46.73Z"/><path class="cls-2" d="M1027.29,614.74s19.82-2.59,19.23,25.42c0,0-17.91,2.92-23.76-20.25Z"/><path class="cls-2" d="M1045.94,591.63s22.9-.07,21,28.6c0,0-19.23,3.44-25.57-23.18Z"/><path class="cls-2" d="M1058.72,571s20.79-9.75,34.09,15.42c0,0-19.2,8.12-35.93-11.35Z"/><path class="cls-2" d="M1071.78,546.62s21.29-10.37,33.79,14.21c0,0-22.18,7.64-35.55-10.32Z"/><path class="cls-2" d="M1079.31,525.44s20.49-19.57,36.84.22c0,0-20.93,16.11-37.78,4.14Z"/><path class="cls-2" d="M1086.17,498.09s20.61-20,36.83.92c0,0-23.13,16.43-37.57,3.28Z"/><path class="cls-2" d="M1090,473.7s15.88-25,34.58-19.42c0,0-16.48,26.47-34.4,25.29Z"/><path class="cls-2" d="M1094.7,450.66s16-31.48,31.14-26c0,0-11.54,24.2-31.55,31.31Z"/><path class="cls-2" d="M1095.81,420.93s16.45-24.78,31.86-21.75c0,0-13.45,25.13-33.46,28.92Z"/><path class="cls-2" d="M1097.09,395.66s12.75-27.81,23.11-28c0,0-6.12,27.61-22.25,32.72Z"/><path class="cls-2" d="M1099.59,371.09s14.17-28.16,24.82-28.22c0,0-7.25,24.08-24.35,30.69Z"/><path class="cls-2" d="M1101.72,341.33s10.6-23.3,19.38-25.94c0,0-5.3,28.4-18.21,32.12Z"/><path class="cls-2" d="M1108.48,317.72l23.69-36.09s-6.07,35.6-27.15,43Z"/><path class="cls-2" d="M1124.74,278.57s27.53-19,28.53-22.07c0,0-14,26.61-40,31.31Z"/><path class="cls-2" d="M1126.39,270s31.61-30.39,39.68-30.36c0,0-26.07,1.19-40.44,28.74Z"/><path class="cls-3" d="M1102,345.84l1.15.15c5.94-46.49,14.6-74,24.38-77.37l-.38-1.1C1116.81,271.12,1108.09,298.21,1102,345.84Z"/><path class="cls-3" d="M1093.29,457l1.74.14c.37-4.34.65-8.78.84-13.21,1.66-38.48,4.23-73.82,7.61-100.31l-1-1.25c-3.39,26.55-6.69,62.95-8.35,101.49C1093.94,448.28,1093.66,452.7,1093.29,457Z"/><path class="cls-3" d="M960.09,667.57c.3-.13,30.93-13.81,62.72-46.43a252.37,252.37,0,0,0,45.85-65c14.7-29.93,23.66-66.71,26.66-102.44l-1.81.85c-6.75,80.2-43.26,135-72.29,164.85-31.48,32.33-61.77,45.87-62.07,46Z"/><path class="cls-4" d="M1039.4,85.26H78.52A8.56,8.56,0,0,0,70,93.82v24.94h978V93.82A8.56,8.56,0,0,0,1039.4,85.26Z"/><path class="cls-5" d="M70,118.76V680a17.26,17.26,0,0,0,17.26,17.26H1030.7A17.26,17.26,0,0,0,1048,680h0V118.76Z"/><circle class="cls-6" cx="85.45" cy="101.76" r="4"/><circle class="cls-7" cx="96.45" cy="101.76" r="4"/><circle class="cls-8" cx="107.45" cy="101.76" r="4"/><rect class="cls-9" x="160.87" y="212.34" width="786" height="345.62"/><rect class="cls-4" x="166.87" y="214.96" width="774" height="338"/><path class="cls-2" d="M377.87,302a77,77,0,1,0,77,77,77,77,0,0,0-77-77Zm13.81,78.85v36.46H364.46V380.8a22.55,22.55,0,1,1,27.22,0Z"/><path class="cls-9" d="M377.87,302a77,77,0,1,0,77,77,77,77,0,0,0-77-77Zm13.81,78.85v36.46H364.46V380.8a22.55,22.55,0,1,1,27.22,0Z"/><path class="cls-10" d="M377.87,280a99,99,0,1,0,99,99h0A99,99,0,0,0,377.87,280Zm17.75,101.38V428.2h-35V381.33a29,29,0,1,1,40.62-5.62A29.33,29.33,0,0,1,395.62,381.33Z"/><rect class="cls-5" x="517.87" y="365.96" width="320" height="34"/><rect class="cls-11" x="768.87" y="427.96" width="69" height="34"/><path class="cls-2" d="M549.37,382.45h-5.79l5.15-5.14a.51.51,0,0,0,0-.71.5.5,0,0,0-.71,0h0l-5.15,5.15V376a.5.5,0,0,0-.5-.5.51.51,0,0,0-.5.5v5.8l-5.14-5.18a.5.5,0,0,0-.71,0h0a.51.51,0,0,0,0,.71l5.15,5.14h-5.8a.51.51,0,0,0-.5.5.5.5,0,0,0,.5.5h5.8L536,388.57a.5.5,0,0,0,.71.71l5.14-5.15v5.79a.5.5,0,0,0,.5.5.5.5,0,0,0,.5-.5v-5.79l5.15,5.15a.5.5,0,0,0,.71-.71l-5.15-5.15h5.79a.5.5,0,0,0,.5-.5A.51.51,0,0,0,549.37,382.45Z"/><path class="cls-2" d="M570.37,382.45h-5.79l5.15-5.14a.51.51,0,0,0,0-.71.5.5,0,0,0-.71,0h0l-5.15,5.15V376a.5.5,0,0,0-.5-.5.51.51,0,0,0-.5.5v5.8l-5.14-5.18a.5.5,0,0,0-.71,0h0a.51.51,0,0,0,0,.71l5.15,5.14h-5.8a.51.51,0,0,0-.5.5.5.5,0,0,0,.5.5h5.8L557,388.57a.5.5,0,0,0,.71.71l5.14-5.15v5.79a.5.5,0,0,0,.5.5.5.5,0,0,0,.5-.5v-5.79l5.15,5.15a.5.5,0,0,0,.71-.71l-5.15-5.15h5.79a.5.5,0,0,0,.5-.5A.51.51,0,0,0,570.37,382.45Z"/><path class="cls-2" d="M591.37,382.45h-5.79l5.15-5.14a.51.51,0,0,0,0-.71.5.5,0,0,0-.71,0h0l-5.15,5.15V376a.5.5,0,0,0-.5-.5.51.51,0,0,0-.5.5v5.8l-5.14-5.18a.5.5,0,0,0-.71,0h0a.51.51,0,0,0,0,.71l5.15,5.14h-5.8a.51.51,0,0,0-.5.5.5.5,0,0,0,.5.5h5.8L578,388.57a.5.5,0,0,0,.71.71l5.14-5.15v5.79a.5.5,0,0,0,.5.5.5.5,0,0,0,.5-.5v-5.79l5.15,5.15a.5.5,0,0,0,.71-.71l-5.15-5.15h5.79a.5.5,0,0,0,.5-.5A.51.51,0,0,0,591.37,382.45Z"/><path class="cls-2" d="M612.37,382.45h-5.79l5.15-5.14a.51.51,0,0,0,0-.71.5.5,0,0,0-.71,0h0l-5.15,5.15V376a.5.5,0,0,0-.5-.5.51.51,0,0,0-.5.5v5.8l-5.14-5.18a.5.5,0,0,0-.71,0h0a.51.51,0,0,0,0,.71l5.15,5.14h-5.8a.51.51,0,0,0-.5.5.5.5,0,0,0,.5.5h5.8L599,388.57a.5.5,0,0,0,.71.71l5.14-5.15v5.79a.5.5,0,0,0,.5.5.5.5,0,0,0,.5-.5v-5.79l5.15,5.15a.5.5,0,0,0,.71-.71l-5.15-5.15h5.79a.5.5,0,0,0,.5-.5A.51.51,0,0,0,612.37,382.45Z"/><path class="cls-2" d="M633.37,382.45h-5.79l5.15-5.14a.51.51,0,0,0,0-.71.5.5,0,0,0-.71,0h0l-5.15,5.15V376a.5.5,0,0,0-.5-.5.51.51,0,0,0-.5.5v5.8l-5.14-5.18a.5.5,0,0,0-.71,0h0a.51.51,0,0,0,0,.71l5.15,5.14h-5.8a.51.51,0,0,0-.5.5.5.5,0,0,0,.5.5h5.8L620,388.57a.5.5,0,0,0,.71.71l5.14-5.15v5.79a.5.5,0,0,0,.5.5.5.5,0,0,0,.5-.5v-5.79l5.15,5.15a.5.5,0,0,0,.71-.71l-5.15-5.15h5.79a.5.5,0,0,0,.5-.5A.51.51,0,0,0,633.37,382.45Z"/><path class="cls-2" d="M654.37,382.45h-5.79l5.15-5.14a.51.51,0,0,0,0-.71.5.5,0,0,0-.71,0h0l-5.15,5.15V376a.5.5,0,0,0-.5-.5.51.51,0,0,0-.5.5v5.8l-5.14-5.18a.5.5,0,0,0-.71,0h0a.51.51,0,0,0,0,.71l5.15,5.14h-5.8a.51.51,0,0,0-.5.5.5.5,0,0,0,.5.5h5.8L641,388.57a.5.5,0,0,0,.71.71l5.14-5.15v5.79a.5.5,0,0,0,.5.5.5.5,0,0,0,.5-.5v-5.79l5.15,5.15a.5.5,0,0,0,.71-.71l-5.15-5.15h5.79a.5.5,0,0,0,.5-.5A.51.51,0,0,0,654.37,382.45Z"/><path class="cls-2" d="M675.37,382.45h-5.79l5.15-5.14a.51.51,0,0,0,0-.71.5.5,0,0,0-.71,0h0l-5.15,5.15V376a.5.5,0,0,0-.5-.5.51.51,0,0,0-.5.5v5.8l-5.14-5.18a.5.5,0,0,0-.71,0h0a.51.51,0,0,0,0,.71l5.15,5.14h-5.8a.51.51,0,0,0-.5.5.5.5,0,0,0,.5.5h5.8L662,388.57a.5.5,0,0,0,.71.71l5.14-5.15v5.79a.5.5,0,0,0,.5.5.5.5,0,0,0,.5-.5v-5.79l5.15,5.15a.5.5,0,0,0,.71-.71l-5.15-5.15h5.79a.5.5,0,0,0,.5-.5A.51.51,0,0,0,675.37,382.45Z"/><path class="cls-2" d="M696.37,382.45h-5.79l5.15-5.14a.51.51,0,0,0,0-.71.5.5,0,0,0-.71,0h0l-5.15,5.15V376a.5.5,0,0,0-.5-.5.51.51,0,0,0-.5.5v5.8l-5.14-5.18a.5.5,0,0,0-.71,0h0a.51.51,0,0,0,0,.71l5.15,5.14h-5.8a.51.51,0,0,0-.5.5.5.5,0,0,0,.5.5h5.8L683,388.57a.5.5,0,0,0,.71.71l5.14-5.15v5.79a.5.5,0,0,0,.5.5.5.5,0,0,0,.5-.5v-5.79l5.15,5.15a.5.5,0,0,0,.71-.71l-5.15-5.15h5.79a.5.5,0,0,0,.5-.5A.51.51,0,0,0,696.37,382.45Z"/><path class="cls-2" d="M717.37,382.45h-5.79l5.15-5.14a.51.51,0,0,0,0-.71.5.5,0,0,0-.71,0h0l-5.15,5.15V376a.5.5,0,0,0-.5-.5.51.51,0,0,0-.5.5v5.8l-5.14-5.18a.5.5,0,0,0-.71,0h0a.51.51,0,0,0,0,.71l5.15,5.14h-5.8a.51.51,0,0,0-.5.5.5.5,0,0,0,.5.5h5.8L704,388.57a.5.5,0,0,0,.71.71l5.14-5.15v5.79a.5.5,0,0,0,.5.5.5.5,0,0,0,.5-.5v-5.79l5.15,5.15a.5.5,0,0,0,.71-.71l-5.15-5.15h5.79a.5.5,0,0,0,.5-.5A.51.51,0,0,0,717.37,382.45Z"/><path class="cls-2" d="M738.37,382.45h-5.79l5.15-5.14a.51.51,0,0,0,0-.71.5.5,0,0,0-.71,0h0l-5.15,5.15V376a.5.5,0,0,0-.5-.5.51.51,0,0,0-.5.5v5.8l-5.14-5.18a.5.5,0,0,0-.71,0h0a.51.51,0,0,0,0,.71l5.15,5.14h-5.8a.51.51,0,0,0-.5.5.5.5,0,0,0,.5.5h5.8L725,388.57a.5.5,0,0,0,.71.71l5.14-5.15v5.79a.5.5,0,0,0,.5.5.5.5,0,0,0,.5-.5v-5.79l5.15,5.15a.5.5,0,0,0,.71-.71l-5.15-5.15h5.79a.5.5,0,0,0,.5-.5A.51.51,0,0,0,738.37,382.45Z"/><path class="cls-2" d="M759.37,382.45h-5.79l5.15-5.14a.51.51,0,0,0,0-.71.5.5,0,0,0-.71,0h0l-5.15,5.15V376a.5.5,0,0,0-.5-.5.51.51,0,0,0-.5.5v5.8l-5.14-5.18a.5.5,0,0,0-.71,0h0a.51.51,0,0,0,0,.71l5.15,5.14h-5.8a.51.51,0,0,0-.5.5.5.5,0,0,0,.5.5h5.8L746,388.57a.5.5,0,0,0,.71.71l5.14-5.15v5.79a.5.5,0,0,0,.5.5.5.5,0,0,0,.5-.5v-5.79l5.15,5.15a.5.5,0,0,0,.71-.71l-5.15-5.15h5.79a.5.5,0,0,0,.5-.5A.51.51,0,0,0,759.37,382.45Z"/><path class="cls-12" d="M920.36,504.1a18.09,18.09,0,0,0-.45-3.59c-.9-3.38-2.93-7.47-6.27-8.49a52.64,52.64,0,0,1-9.94-4.2c-.6-10.72,1.86-21.69-.82-32.08-1-3.8-2.65-7.44-3.09-11.33-.55-4.84.77-10-1.16-14.46-1.52-3.52-4.86-6-8.45-7.3a45,45,0,0,0-11.27-2c-4.8-.39-20.34-2.23-25.76,2.06h0a5.57,5.57,0,0,0-1,1h0a3.46,3.46,0,0,0-.32.52l-.05.08a4.06,4.06,0,0,0-.27.65h0a4.05,4.05,0,0,0-.17.75v1.8c.07.9.2,1.8.2,2.69a5.85,5.85,0,0,1-.12,1.32,9.41,9.41,0,0,1-1.66,3.24h0l-.18.26c-.11.16-.22.31-.32.47s-.18.28-.26.42-.16.23-.23.36a3.06,3.06,0,0,0-.26.51c0,.1-.11.19-.15.29a4.21,4.21,0,0,0-.3.84,5.44,5.44,0,0,0-.06,2.66,9.83,9.83,0,0,0,1.37,3.15c.25.41.52.81.8,1.21l.7.95a21.85,21.85,0,0,0-.21,2.8,20.68,20.68,0,0,0,7.9,16.26,61.87,61.87,0,0,1-.13,12.69c-.09.88-.2,1.77-.32,2.65s-.21,1.46-.33,2.19a10.08,10.08,0,0,1-4.37-.33,21.13,21.13,0,0,0-2-.77c-2.91-.73-5.88,2.17-8.76,1.29a1.17,1.17,0,0,1-.13.4,4,4,0,0,0-2-.59c-1.71-.08-3.1-1.32-4.34-2.49l-3.81-3.59a4.21,4.21,0,0,1-.66-.74,4.93,4.93,0,0,1-.46-1.23c-.64-2.07-2.19-3.72-3.69-5.29a2.52,2.52,0,0,0-1.09-.79,1.4,1.4,0,0,0-.5,0,4.12,4.12,0,0,0-.33-.4,9.41,9.41,0,0,0-.83-.84c-1.82-1.68-2-3.12-3.58-5a47.22,47.22,0,0,1-3.74-5.65c-.13-1.05-.31-2.13-.53-3.22a42,42,0,0,0-2.19-7.3l-2-4.43-.23.23c-1.45-2.16-3-3.34-4.39-3.06-2.33.48-3.48,5-3.11,10.91l.8,6a1.85,1.85,0,0,0,.11.45,10.42,10.42,0,0,0-.22,2.16c0,.84.78,1.46,1.19,2.21a6.34,6.34,0,0,1,1,3.41c0,.43-.18.84-.2,1.26a4.81,4.81,0,0,0,.94,2.6l5,8.4,1,1.76.06.08a4.22,4.22,0,0,0,1.34,1.54,18.08,18.08,0,0,0,1.65,6.07c.17.38.36.74.56,1.1a34.63,34.63,0,0,0,4.72,6.13l2.38,2.67c2.35,2.62,4.7,5.25,7.25,7.67a9.69,9.69,0,0,0,3.24,2.27,3.66,3.66,0,0,0,3.64-.53v3.72a2.1,2.1,0,0,1,1.58,3.29c-2.1,5.39-4.22,10.83-7.4,15.66a33.9,33.9,0,0,1,6.2,4.73,28.19,28.19,0,0,1,3.23,4.37c.09.74.16,1.47.2,2.2.74,11.92-3.87,23.75-8,35.11-1.19,3.22-2.49,6.59-2.39,9.94a17.91,17.91,0,0,0-2.24,1.61c.82,2.14.5,4,.41,6.34a11.22,11.22,0,0,1-.83,4c-.44.88-.92,1.74-1.44,2.57-2.59,4.57-3.16,10-3.68,15.22-.31,3.15.91,7-.52,9.82-2.47,4.84-4.66,10-5,15.38a15.49,15.49,0,0,1-.46,3.59c-.31,1-.86,1.85-1.14,2.83a11.94,11.94,0,0,0-.2,4,38.25,38.25,0,0,1-2.1,14.11c-1.25,3.57-2.63,7.39-1.65,11.06a15.5,15.5,0,0,0-4.23,9.29,15.72,15.72,0,0,1-.32,2.65,13.2,13.2,0,0,1-1.2,2.55,22.22,22.22,0,0,0-2.72,12c-3,4.07-4.5,9.09-5.39,14.08s-1.28,10.07-2.42,15c-1.52,6.52-4.27,13.11-4.81,19.79-3.24,2.07-4.64,6.08-5.26,9.87s-.72,7.77-2.31,11.27c-.82,1.82-2,3.45-2.78,5.31a24,24,0,0,0-1.2,4.57c-.48,2.44-.9,5.16-.31,7.5a11.37,11.37,0,0,1-2.93,2.23c.16-.62.29-1.24.4-1.87-2.58,2.34-7.26,1.52-9.32,4.33a4.21,4.21,0,0,0,1,5.79,8.09,8.09,0,0,0,2.07.89c5,1.6,10.14,3.21,15.28,2.36a4.67,4.67,0,0,0,1.73-.55,5.54,5.54,0,0,0,1.61-1.86c.77-1.22,1.54-2.44,2.3-3.66a46.6,46.6,0,0,0,5.61,1.31c.19,1.6.33,3.2.4,4.8,1,.2,2.34.26,2.81-.67a2.47,2.47,0,0,0,.17-1.11c0-.71.1-1.65.16-2.61h.2a19,19,0,0,0,8.85-1.79c-1.07-8.86,2.46-17.52,5.52-25.9,3.23-8.82,6-17.8,8.79-26.78,2-6.32,4.21-12.44,6.17-18.77q3.69-12,7.43-24c1.08-3.52,2.17-7,3.41-10.5a162.29,162.29,0,0,1,9.27-20.63c1-1.89,2-3.76,2.82-5.72,1-2.39,1.71-4.89,2.51-7.36a113,113,0,0,1,6.28-14.78c.07-.13.12-.25.19-.37.81,3.31,1.62,6.67,2.16,10a38,38,0,0,1,.17,12.36c-.48,2.79-1.39,5.55-1.28,8.38.15,3.91,2.24,7.46,3.27,11.23a42.93,42.93,0,0,1,1.12,8.6c.28,4.5,2.72,9.55,1,13.72-5.35,13.21-2.76,28.13-5.81,42-1.57,7.12-6.38,13.81-6,21.09q.39,7.76,1.36,15.46a14.43,14.43,0,0,0,1.25,4.69,16.57,16.57,0,0,0,1.37,2.24c-.44.17-.81.62-1.13,1.57a6.17,6.17,0,0,0,2.22,7,9.82,9.82,0,0,0,2.89,1,15.12,15.12,0,0,0,4.18.58,9.76,9.76,0,0,0,1.31-.16,45.89,45.89,0,0,0,4.73,1.7,10.26,10.26,0,0,0,.13,1.23,1.51,1.51,0,0,0,.52,1.13,1.56,1.56,0,0,0,.8.14h5.43v-1.36a4.5,4.5,0,0,0,3.45-1.12,5.36,5.36,0,0,0,1-2.08q2.22-7.53,4.41-15.07a48.17,48.17,0,0,0,2.15-17.2c-1.93-18.43,2.31-36.92.93-55.4a132.69,132.69,0,0,1,1.7-33.24c.45-2.48,1-5,1.2-7.47.44-4.66-.1-9.37.23-14,.11-1.62.33-3.23.53-4.84a232.05,232.05,0,0,0,2.15-30.15,95.52,95.52,0,0,0-.62-10,5.75,5.75,0,0,0,2.73-1.6c.89-1.16.66-2.79.65-4.27,0-3.54,1.49-6.88,2.69-10.22a122,122,0,0,0,3.78-14.06,49.59,49.59,0,0,0,1.68-11.75q0-.6-.06-1.2a3.15,3.15,0,0,0,.92-1,6,6,0,0,0,.48-1.85c.36-2.55.73-5.11,1.09-7.67.26-1.83.53-3.66.79-5.49l3.18-22.19c.27-1.93.55-3.85.82-5.77l.83-5.74c.09-.68.19-1.36.26-2C923,514.18,920.62,508.74,920.36,504.1Zm-26.53,83.08c-1.18-2.8-2.28-5.67-2-8.69h-.11a4.53,4.53,0,0,0-.13-2.82c-.31-.73-.85-1.35-1.18-2.08a7.46,7.46,0,0,1-.54-2.8,76.17,76.17,0,0,1,1.43-18.14c.13-.7.27-1.41.4-2.11a5.15,5.15,0,0,0,1.14-.89,8.25,8.25,0,0,0,1.29-2c1.13-2.27,2.16-4.58,3.11-6.93.31-.76.76-1.64,1.53-1.83-.16,5.85.44,11.82-1.94,17.1a10.83,10.83,0,0,0-1,2.7c-.22,1.49.4,3,.18,4.48-.11.77-.44,1.48-.57,2.24a2.19,2.19,0,0,0,.58,2.12,1.59,1.59,0,0,0,.43.22c-.06.4-.11.81-.15,1.2-.08.82-.12,1.59-.17,2.07a64.59,64.59,0,0,0-.27,7.36c0,2.65.1,5.3.06,8a5.68,5.68,0,0,1-.38,2.27,4.13,4.13,0,0,1-.76,1,26,26,0,0,0-.95-2.47Z"/><ellipse class="cls-13" cx="811.68" cy="455.5" rx="5.64" ry="15.97" transform="translate(-74.91 172.21) rotate(-11.58)"/><path class="cls-14" d="M861.49,792.57a6.05,6.05,0,0,0,2.22,6.93,9.7,9.7,0,0,0,2.87,1,15.42,15.42,0,0,0,4.17.57c1.73-.08,3.39-.76,5.12-1a.81.81,0,0,1,.59.08.9.9,0,0,1,.22.7,26.43,26.43,0,0,0,.22,2.94,1.49,1.49,0,0,0,.52,1.13,1.56,1.56,0,0,0,.8.14h5.42a53,53,0,0,0-1.55-14.14,3.33,3.33,0,0,0-.4-1,3.38,3.38,0,0,0-1.73-1,9.72,9.72,0,0,0-4.19-.73c-1.75.23-3.21,1.36-4.7,2.3s-3.52,1.77-5.33,1.29S862.42,789.79,861.49,792.57Z"/><path class="cls-13" d="M781.91,788.18a15.17,15.17,0,0,1-5.47,3.72l-.92.44a.64.64,0,0,0-.31.25.52.52,0,0,0,.1.45,6.48,6.48,0,0,0,7.34,2.67,4,4,0,0,0,1.61-.84,5.28,5.28,0,0,0,1.24-3.22,6.62,6.62,0,0,0-.15-3.69C784,784.83,783.45,786.25,781.91,788.18Z"/><path class="cls-14" d="M802.69,800.5a2.47,2.47,0,0,1-.17,1.11c-.47.92-1.78.87-2.8.67a68.62,68.62,0,0,0-1.23-10.1c-1.94-.09-3.34,1.75-4.38,3.4l-2.68,4.25a5.62,5.62,0,0,1-1.6,1.86,4.86,4.86,0,0,1-1.73.55c-5.12.85-10.29-.76-15.23-2.36a8.07,8.07,0,0,1-2.07-.88,4.23,4.23,0,0,1-1-5.78c2.07-2.8,6.72-2,9.3-4.32a23.28,23.28,0,0,1-1.32,4.77c3.45-.52,5.77-3.68,8.55-5.79a5.32,5.32,0,0,1,2.44-1.16,5.22,5.22,0,0,1,2,.21,23.53,23.53,0,0,1,8.8,4.33c1,.83,2.69,2,3.15,3.28C803.21,796.07,802.69,798.87,802.69,800.5Z"/><circle class="cls-13" cx="871.48" cy="449.9" r="20.66"/><path class="cls-14" d="M912.18,571.88a49.68,49.68,0,0,1-1.67,11.69,121,121,0,0,1-3.78,14c-1.19,3.33-2.68,6.67-2.67,10.2,0,1.47.24,3.1-.66,4.26a6.26,6.26,0,0,1-2.92,1.67,3.65,3.65,0,0,0-2.46,2.19,15.43,15.43,0,0,1-2.08-4.58q-2.7-8.23-5-16.57a2.12,2.12,0,0,1,.14-2,2.42,2.42,0,0,1,.87-.49,9.12,9.12,0,0,0,2.77-1.78,4.09,4.09,0,0,0,.92-1.19A5.47,5.47,0,0,0,896,587c0-2.65,0-5.29-.07-7.94a66.43,66.43,0,0,1,.28-7.33c0-.48.09-1.25.17-2.07.15-1.57.45-3.39,1.3-4,1.27-.85,5.07.29,6.51.49,2.48.34,5,.74,7.42,1.21A20,20,0,0,1,912.18,571.88Z"/><path class="cls-14" d="M828.76,473c-.8,1.6-2.72,2.37-4.2,3.38l-5.07,3.48a3.36,3.36,0,0,1-2.51.86,3.28,3.28,0,0,1-1.87-1.75v-.08l-1.05-1.76-5-8.38a4.74,4.74,0,0,1-.93-2.58c0-.43.15-.83.19-1.26a6.12,6.12,0,0,0-1-3.4c-.4-.75-1.2-1.37-1.18-2.21a8,8,0,0,1,.56-3.23,6.46,6.46,0,0,1,2.19-2.34c.47-.34,1-.66,1.45-1a2.76,2.76,0,0,1,.87-.4c.83-.17,1.65.52,2.49.55,3.61,2.42,5,7,7.84,10.3,1.6,1.88,1.76,3.32,3.57,5,.29.26.57.54.84.83a5.81,5.81,0,0,1,.9,1.3C827.18,471.2,829.17,472.21,828.76,473Z"/><path class="cls-13" d="M864.22,470.57c1.49,3.15,2.65,6.61,2.22,10.07a6.38,6.38,0,0,1-.87,2.65c-1.44,2.21-4.46,2.61-7.09,2.74a4.21,4.21,0,0,0-3.08,1,2.78,2.78,0,0,0,.19,3.42,7.65,7.65,0,0,0,3.06,2c4.16,1.83,8.65,3.34,13.17,2.92,2.1-.2,4.14-.81,6.23-1.12a65.56,65.56,0,0,1,6.86-.38c2.72-.1,5.43-.37,8.14-.64l7.18-.71a1.57,1.57,0,0,0,1.07-.39c.53-.62-.15-1.53-.81-2-3.81-2.82-8.66-4.76-10.83-9-1-2-1.31-4.38-2-6.54s-1.92-4.11-2.38-6.31a40.41,40.41,0,0,1-.33-5.82,7.84,7.84,0,0,0-2-5.32c-1.43-1.33-3.5-1.67-5.44-1.75-4.78-.21-9.87.93-13.26,4.3-.91.91-1.69,2-2.63,2.82s-2.22,1.06-1.6,2.14,1.84,1.75,2.5,2.7A22.75,22.75,0,0,1,864.22,470.57Z"/><path class="cls-14" d="M905,499.66a113.44,113.44,0,0,1-6.12,22.53,84.24,84.24,0,0,0-3.6,10.1c-.77,3.1-.62,6.42-1.33,9.53-.88,3.87-1.76,7.75-2.47,11.65a76.35,76.35,0,0,0-1.42,18.1,7.41,7.41,0,0,0,.54,2.79c.33.72.86,1.34,1.17,2.08a5,5,0,0,1-.28,4,11.82,11.82,0,0,1-2.06,3.12c-9.32,2.78-19.29,1.87-29,2.46-9,.54-18,2.38-26.82.85-1-4,.67-8.19,2.1-12.09,4.15-11.33,8.74-23.13,8-35a38.38,38.38,0,0,0-.47-4.13c-1.45-8.41.13-17.12,2.66-25.27,1.57-5.08,1.5-10.49,1.14-15.78a28.81,28.81,0,0,1-.07-5.17,9.05,9.05,0,0,1,1.88-4.83c0-.07.09-.14.14-.21a1.37,1.37,0,0,1,.75,0h0a.62.62,0,0,0,.5,0l.11-.07a.26.26,0,0,1,.29,0c.23.14.36.62.86.71a20.77,20.77,0,0,0,2.23.21,11.94,11.94,0,0,1,2.66.38h.12a7.76,7.76,0,0,0,3.88-.33,10.76,10.76,0,0,0,2.38-.92c.22-.24,1.6-.46,1.88-.63.91-.55.71-3.13.9-4.19a11.07,11.07,0,0,1,.75-3.1,5.28,5.28,0,0,1,4.28-2.49,22.68,22.68,0,0,1,5.13.46c3.73.53,7.55.44,11.21,1.3,1.84.43,3.85,1.08,5.54.24.46.11.53.51.53,1a7.09,7.09,0,0,1-.28,1.37c-.64,2.76,1.53,5.3,3.53,7.3a11.2,11.2,0,0,0,2.95,2.35c1,.46,2,.65,3,1.15a5.41,5.41,0,0,1,2,1.83,7.8,7.8,0,0,1,1.14,2.91A17.62,17.62,0,0,1,905,499.66Z"/><path class="cls-15" d="M905,499.66a113.44,113.44,0,0,1-6.12,22.53,84.24,84.24,0,0,0-3.6,10.1c-.77,3.1-.62,6.42-1.33,9.53-.88,3.87-1.76,7.75-2.47,11.65-.21.12-.43.23-.65.33a15.6,15.6,0,0,1-3.92,1.26,24.28,24.28,0,0,1-7.32-.24l-14.27-1.91c-5.7-.77-11.77-1.7-16-5.56-2.35-2.12-3.89-4.92-5.58-7.62a38.38,38.38,0,0,0-.47-4.13c-1.45-8.41.13-17.12,2.66-25.27,1.57-5.08,1.5-10.49,1.14-15.78a28.81,28.81,0,0,1-.07-5.17,9.05,9.05,0,0,1,1.88-4.83,6.74,6.74,0,0,1,.89-.2h0a4.07,4.07,0,0,1,.61-.08h.29a4.27,4.27,0,0,1,1,.12,17.94,17.94,0,0,1,2,.77h.12a7.72,7.72,0,0,0,2.66.38c1.32,0,2.68-.21,4-.3a7.38,7.38,0,0,1,4.74.85,28.68,28.68,0,0,1,2.64,2.41,11.11,11.11,0,0,0,3.33,1.81,35.39,35.39,0,0,0,26.62-.56,5.18,5.18,0,0,1,2.67-.68,5,5,0,0,1,1.92.82c.6.35,1.19.69,1.8,1a7.8,7.8,0,0,1,1.14,2.91A17.48,17.48,0,0,1,905,499.66Z"/><path class="cls-16" d="M913.66,493a53.34,53.34,0,0,1-11.4-5,5.2,5.2,0,0,0-1.92-.82,5.34,5.34,0,0,0-2.68.68,35.41,35.41,0,0,1-26.61.56,11.7,11.7,0,0,1-3.33-1.81,30,30,0,0,0-2.64-2.41c-3.29-2.13-7.84.37-11.52-1a21.13,21.13,0,0,0-2-.77c-2.91-.73-5.87,2.17-8.73,1.29a48.23,48.23,0,0,0-2.35,8.92,94.76,94.76,0,0,0-.65,10.52c0,2.11-.1,4.22,0,6.33a2.08,2.08,0,0,1,1.58,3.28c-2.09,5.37-4.21,10.8-7.38,15.61a33.71,33.71,0,0,1,6.18,4.72c3.5,3.7,5.22,8.89,9,12.31,4.26,3.85,10.33,4.79,16,5.55l14.27,1.91a24.35,24.35,0,0,0,7.33.25,15.43,15.43,0,0,0,3.91-1.27,7.07,7.07,0,0,0,2.18-1.44,8.25,8.25,0,0,0,1.29-2c1.13-2.26,2.16-4.57,3.11-6.91.33-.83.83-1.8,1.73-1.87,5.3-4.78,10.3-9.68,15.6-14.46a34.76,34.76,0,0,0,5.69-6c2.63-3.89.24-9.4,0-14.1a17.89,17.89,0,0,0-.45-3.57C919,498.13,917,494.05,913.66,493Z"/><path class="cls-15" d="M828.76,473c-.8,1.6-2.72,2.37-4.2,3.38l-5.07,3.48a3.36,3.36,0,0,1-2.51.86,3.28,3.28,0,0,1-1.87-1.75v-.72a6.68,6.68,0,0,1,.32-2.39,7.34,7.34,0,0,1,2.24-2.88,18.28,18.28,0,0,1,6.57-4,2.23,2.23,0,0,1,1.2-.12,1.54,1.54,0,0,1,.44.19,5.81,5.81,0,0,1,.9,1.3C827.18,471.2,829.17,472.21,828.76,473Z"/><path class="cls-16" d="M840.7,483.57c-1.7-.08-3.09-1.31-4.33-2.48l-3.79-3.52a3.1,3.1,0,0,1-.66-.74,4.93,4.93,0,0,1-.46-1.23,14.24,14.24,0,0,0-3.68-5.28,2.37,2.37,0,0,0-1.09-.78,2.17,2.17,0,0,0-1.21.12,18.28,18.28,0,0,0-6.57,4,7.34,7.34,0,0,0-2.24,2.88,6.68,6.68,0,0,0-.32,2.39,18.2,18.2,0,0,0,1.74,7.64c.17.37.36.74.56,1.1a34.74,34.74,0,0,0,4.7,6.11l2.38,2.66c2.34,2.62,4.68,5.24,7.22,7.65a9.52,9.52,0,0,0,3.24,2.26,3.63,3.63,0,0,0,3.72-.6,5.31,5.31,0,0,0,1.06-1.9c1.54-4,3-8.16,3.09-12.47a47,47,0,0,0-.22-5.17C843.69,484.39,842.4,483.68,840.7,483.57Z"/><path class="cls-17" d="M901.3,623.57a232.71,232.71,0,0,1-2.14,30.07c-.2,1.61-.42,3.22-.53,4.83-.33,4.67.21,9.36-.23,14-.23,2.51-.75,5-1.19,7.45a132,132,0,0,0-1.7,33.15c1.38,18.43-2.85,36.87-.93,55.25A45.06,45.06,0,0,1,894,779a46,46,0,0,1-1.55,6.46q-2.19,7.51-4.4,15a5.36,5.36,0,0,1-1,2.08,4.74,4.74,0,0,1-3.75,1.11c-5.77-.18-11.2-2.67-16.44-5.1a5.78,5.78,0,0,1-1.65-1c-1.09-1.13-1-2.91-1.48-4.4s-1.78-2.89-2.52-4.42a14.29,14.29,0,0,1-1.09-4.55q-1-7.68-1.36-15.42c-.38-7.26,4.42-13.94,6-21,3-13.88.46-28.76,5.79-41.93,1.68-4.16-.76-9.2-1-13.68a43.57,43.57,0,0,0-1.12-8.58c-1-3.76-3.11-7.3-3.26-11.2-.11-2.82.8-5.57,1.27-8.35a37.79,37.79,0,0,0-.17-12.33c-.53-3.36-1.34-6.72-2.15-10l-.18.37a112.57,112.57,0,0,0-6.27,14.75c-.8,2.45-1.5,4.95-2.5,7.33-.82,2-1.83,3.83-2.82,5.71a164.62,164.62,0,0,0-9.25,20.55c-1.24,3.46-2.33,7-3.41,10.47l-7.41,24c-2,6.31-4.19,12.41-6.15,18.71-2.77,9-5.54,17.92-8.76,26.72-3,8.35-6.57,17-5.5,25.82a19,19,0,0,1-8.83,1.79,51.69,51.69,0,0,1-15-3.64c-1.91-.71-3.89-1.51-5.18-3.08-2.22-2.71-1.67-6.68-1-10.13a23.93,23.93,0,0,1,1.2-4.56c.76-1.84,2-3.47,2.78-5.29,1.57-3.49,1.67-7.44,2.29-11.23s2-7.79,5.24-9.85c.55-6.66,3.29-13.23,4.8-19.74,1.14-4.93,1.52-10,2.42-15s2.35-10,5.37-14a22.2,22.2,0,0,1,2.72-12,14.08,14.08,0,0,0,1.19-2.55,15.61,15.61,0,0,0,.32-2.64,15.55,15.55,0,0,1,4.22-9.27c-1-3.65.39-7.46,1.64-11a38.46,38.46,0,0,0,2.1-14.07,12.21,12.21,0,0,1,.19-4c.28-1,.83-1.85,1.15-2.81a16.72,16.72,0,0,0,.45-3.59c.39-5.41,2.58-10.51,5-15.34,1.44-2.82.22-6.65.52-9.79.52-5.22,1.09-10.62,3.68-15.17.48-.86,1-1.68,1.43-2.57a11.22,11.22,0,0,0,.83-4c.09-2.29.41-4.19-.41-6.32,5.35-4.45,12.65-5.7,19.61-6s14,.33,20.81-1.15c2-.45,4-1.07,6.11-1.37,4.79-.7,9.65.39,14.38,1.47-.33,3,.77,5.88,2,8.67A93.11,93.11,0,0,1,901.3,623.57Z"/><path class="cls-15" d="M877.75,625.86,866.26,651.7c-.53-3.36-1.34-6.72-2.15-10l-.18.37v-.54l6.26-13.77Z"/><path class="cls-15" d="M912.18,571.88a4.33,4.33,0,0,1-2.28.85,11.27,11.27,0,0,1-3.74-.51l-9-2.25a4.7,4.7,0,0,1-.82-.29c.15-1.57.45-3.39,1.3-4,1.27-.85,5.07.29,6.51.49,2.48.34,5,.74,7.42,1.21A20.07,20.07,0,0,1,912.18,571.88Z"/><path class="cls-16" d="M919.79,512.38c.19.83.46,1.65.62,2.49a18.92,18.92,0,0,1-.21,6.19l-.82,5.72-.82,5.75-3.17,22.13-.78,5.48-1.1,7.65a5.56,5.56,0,0,1-.48,1.84,3.84,3.84,0,0,1-3.13,1.85,11.27,11.27,0,0,1-3.74-.51l-9-2.26a2.73,2.73,0,0,1-1.1-.45,2.17,2.17,0,0,1-.58-2.11c.13-.76.46-1.47.57-2.23.22-1.48-.4-3-.18-4.47a10.76,10.76,0,0,1,1-2.69c3-6.63,1.26-14.37,2.28-21.57a32.7,32.7,0,0,1,6.94-15.44,44.32,44.32,0,0,1,7.66-7.52c1.12-.87,2.9-2.66,4.31-3C919.87,508.85,919.49,511.12,919.79,512.38Z"/><path class="cls-17" d="M851.68,426.24c-.66,2.1.37,4.41-.1,6.55-.51,2.36-2.73,4-3.36,6.37-1,3.61,2.06,6.9,4.3,9.9,8.3,11.14,7.21,26.56,4.37,40.15a208.63,208.63,0,0,1-9.45,32c-1.25,3.23-2.63,6.51-5.09,8.93,4.6-1.32,9.49-2.65,14.1-1.37,5.84,1.62,10.88,7.29,16.8,6,3.56-.79,6.06-3.95,9.26-5.7,6-3.23,13.23-1.2,19.92-.16a7.86,7.86,0,0,0,4.35-.22,7.25,7.25,0,0,0,2.64-2.43,24.74,24.74,0,0,0,5.14-13.3,17.06,17.06,0,0,0-4.91-13.13c-1.42-1.34-3.12-2.42-4.21-4a12.41,12.41,0,0,1-1.65-6.06c-.79-11,1.89-22.23-.87-32.87-1-3.79-2.63-7.42-3.07-11.3-.55-4.83.76-10-1.16-14.42-1.51-3.51-4.84-6-8.43-7.28a46.18,46.18,0,0,0-11.24-2C873.54,421.44,854,419.09,851.68,426.24Z"/><g class="cls-18"><path class="cls-19" d="M856.89,489.21a207.69,207.69,0,0,1-9.4,31.87c.69-1.37,1.27-2.81,1.82-4.24a206.09,206.09,0,0,0,9.45-32c2.85-13.6,3.94-29-4.36-40.15-2-2.66-4.57-5.54-4.48-8.66a10.52,10.52,0,0,0-1.7,3.14c-1,3.61,2.06,6.9,4.3,9.9C860.82,460.2,859.73,475.62,856.89,489.21Z"/><path class="cls-19" d="M851.7,431.78a9.8,9.8,0,0,0,1.76-3.37,17.51,17.51,0,0,0-.12-4.46,4.82,4.82,0,0,0-1.66,2.29C851.09,428,851.77,429.93,851.7,431.78Z"/><path class="cls-19" d="M911.3,521.86a7.14,7.14,0,0,1-2.64,2.42,7.68,7.68,0,0,1-4.35.22c-6.69-1-14-3.06-19.92.17-3.21,1.74-5.7,4.9-9.27,5.7-5.91,1.32-11-4.35-16.79-6-4.14-1.15-8.5-.2-12.67,1a17.55,17.55,0,0,1-3.31,4.78c4.6-1.32,9.49-2.65,14.1-1.37,5.84,1.62,10.88,7.29,16.8,6,3.56-.79,6.06-3.95,9.26-5.7,6-3.23,13.23-1.2,19.92-.16a7.86,7.86,0,0,0,4.35-.22,7.25,7.25,0,0,0,2.64-2.43,27,27,0,0,0,4.14-7.92A30,30,0,0,1,911.3,521.86Z"/></g></svg>