<svg id="Layer_1" data-name="Layer 1" xmlns="http://www.w3.org/2000/svg" viewBox="0 0 700 950"><defs><style>.cls-1{fill:#146c5f;}.cls-2{fill:#ed292a;}.cls-3{fill:#ed282a;}.cls-4{fill:#ec2729;}.cls-5{fill:#ec272a;}.cls-6{fill:#9f5c40;}.cls-7{fill:#4f6a58;}.cls-8{fill:#836248;}</style></defs><path class="cls-1" d="M649.43,658.61c-.25,3.7-.71,9-1.55,15.24-12.81,95.17-84,202.48-195.66,238.87-113.57,37-217.12,17.89-306.82-63.35-53.85-48.78-83.95-110.21-93.5-182A307.47,307.47,0,0,1,49.38,636c-.23-7.81.11-8.14,7.74-8.14,57,0,114,.06,171-.12,5.7,0,7.59,2.13,7.88,7.47,2,37.24,18.84,66.49,49.1,87.67,68,47.61,164.88,4.9,175.76-77.24a88,88,0,0,0,.86-11.69c0-5,2.53-6.16,7-6.16q87.69.13,175.38.07c2.22,0,4.61-.3,6,2.13.27,3.32.45,6.86.49,10.59,0,2.88,0,5.64-.12,8.27C650.16,652.1,649.8,655.36,649.43,658.61Z"/><path class="cls-1" d="M433.8,19.2l7.5,0c6.1,2.49,8.7,7.91,11,13.47,6.38,15.61,10.54,32,15.82,48,13,39.58,35.59,72.69,68.2,98.52,34.29,27.16,54.84,62,60.05,105.36,5.71,47.42-9.37,87.5-44.45,120-.46.42-.95.8-1.43,1.18-2.13,1.73-4.34,3.58-7.06,1.22s-1.18-4.8.37-7.08a167.65,167.65,0,0,0,13-22.34c18.35-39.1,17.73-78.31.75-117.59-5.39-12.49-14.9-21.69-25.5-29.65-23.52-17.68-47.54-34.7-70.57-53.05-1-.83-2-2.56-3.6-1.71s-1,2.95-1,4.5c.06,26.16.28,52.32.26,78.48q0,85.3-.32,170.61c-.25,53.34-.41,106.7-1.41,160-.36,19.32,1.2,38.73-1.7,58-6.52,43.39-43.24,80.25-86.5,86.81-59.5,9-111.23-27.17-122.87-86-11.79-59.54,31.88-118.09,92.44-124.35,25.78-2.66,49.37,2.86,71.08,16.86,1.28.83,2.45,2.76,4.26,1.44,1.29-1,.66-2.69.64-4.07q-1.15-71.32-2.36-142.66c-.54-32.95-1.1-65.89-1.48-98.83q-.75-66.42-1.25-132.84-.48-56.54-.81-113.08c-.11-17.84,4.21-23.79,21-29.49C429.81,20.23,431.82,19.76,433.8,19.2Z"/><path class="cls-2" d="M647,541.08q0,35.19,0,70.38c0,7.37-.93,8.2-8.71,8.59-6.82.35-9.14-1.52-9.77-8-.17-1.84-.1-3.7-.1-5.55q0-58.34,0-116.68,0-10.17-.4-20.35c-.19-4.88,1.64-7,6.82-7,12.19,0,12.2-.22,12.2,11.92Z"/><path class="cls-3" d="M105.79,540.52c0-23.47.23-46.95-.14-70.42-.11-6.84,2.94-7.79,8.58-7.6,9.21.3,10.51,1,10.52,8,.1,47.35.1,94.7.28,142.05,0,5-1.67,7.28-6.72,7-11.67-.65-12.57.39-12.54-11.72C105.83,585.4,105.79,563,105.79,540.52Z"/><path class="cls-4" d="M536.39,541.11c0,23.68-.19,47.37.13,71,.08,5.89-2.28,7.47-7.51,7.57-8.61.16-10.7-.87-11.11-7-.31-4.51-.24-9-.24-13.58q0-64.25.06-128.51c0-2.62-1.5-6.58,2.19-7.53,4.9-1.27,10.29-1.77,15,.62,2.37,1.2,1.44,4.5,1.45,6.9Q536.43,505.89,536.39,541.11Z"/><path class="cls-5" d="M235.14,541.16c0,23.48-.17,47,.11,70.44.07,5.81-1.4,8-7.55,7.76-12.35-.58-11.5,1.72-11.51-11.74q0-67.65.06-135.32c0-3.1-1.63-7.64,2-8.93a23.81,23.81,0,0,1,15.13.07c2.67.87,1.71,3.9,1.71,6Q235.18,505.32,235.14,541.16Z"/><path class="cls-3" d="M489.64,551.65q0-30,0-59.94c0-7.77.74-8.46,8.43-8.49,10.93-.05,10.93-.05,10.93,10.9q0,58.39-.06,116.8c0,2.84,1.46,7-2.47,8-4.91,1.2-10.32,2-15.1-.48-2.35-1.2-1.73-4.39-1.73-6.84Q489.64,581.63,489.64,551.65Z"/><path class="cls-3" d="M188.57,550.43c0-20,0-39.91,0-59.87,0-4,.17-7.25,5.63-7.43,9.67-.31,12.75,1,13.44,6.77a35,35,0,0,1,.13,3.7q0,59.25,0,118.5c0,6.88-1,7.78-7.91,7.57-10.79-.34-11.25-.8-11.26-11.84Q188.56,579.14,188.57,550.43Z"/><path class="cls-2" d="M78.26,551.64V489.88c0-4.46,1.89-7.12,6.71-6.64s11-1.73,11.89,6.18a48.88,48.88,0,0,1,.33,5.54q0,58.08,0,116.16c0,8.24-.3,8.48-8.75,8.54s-9.82-1-9.83-8.71c0-19.77,0-39.54,0-59.31Z"/><path class="cls-3" d="M564.19,551.7c0,20.37-.06,40.75,0,61.12,0,5-2.45,7.1-7.14,6.8s-10.49,1.38-11.5-6a46.76,46.76,0,0,1-.33-6.15q0-57.75,0-115.5c0-8.1.58-8.78,7.34-8.79,10.16,0,11.18.78,11.19,9.19q0,29.64,0,59.29Z"/><path class="cls-5" d="M619.16,551.09c0,20.36-.14,40.72.08,61.08.06,5.77-2.18,7.4-7.7,7.17-11.61-.48-11.11,1.57-11.11-10.87,0-38.88.08-77.75-.09-116.63,0-5.59.69-8.93,7.5-8.74,10.66.29,11.07.09,11.12,8.15.13,19.95,0,39.89,0,59.84Z"/><path class="cls-5" d="M152.36,552.43c0,20-.21,39.91.14,59.86.09,5.4-1.58,7.22-6.79,7.39-10.7.35-12.09-.78-12.09-11.5V491.53c0-7.83.41-8.25,7.72-8.31,9.75-.08,11,.87,11,8.72Q152.39,522.18,152.36,552.43Z"/><path class="cls-3" d="M462.05,567.09c0-15.24.15-30.48-.08-45.72-.07-5.15,2-6.82,6.93-6.92,12.24-.26,12.53-.15,12.54,11.86,0,27.6,0,55.2-.05,82.8,0,3.34,1.32,8-2.14,9.56-4.42,2-9.72,1.65-14.56.37-3.12-.83-2.62-3.81-2.62-6.22Q462,590,462.05,567.09Z"/><path class="cls-3" d="M592,567.09c0,15-.1,30.07,0,45.1.06,5.19-1.72,7.26-7.22,7.16-12.39-.22-12.39,0-12.39-12.31q0-41.7,0-83.41c0-3.12-1.11-7.44,2.91-8.48,4.88-1.27,10.24-1.66,15.08.54,2.15,1,1.31,3.7,1.31,5.68,0,15.24,0,30.48,0,45.72Z"/><path class="cls-2" d="M161,565.66c0-14.62.1-29.23-.06-43.85-.05-4.66,1-7.3,6.4-7.38,9.94-.16,12,.48,12.12,6.92.39,19.54.4,39.09.51,58.64.06,10.29-.11,20.58.06,30.87.08,5.41-.87,9.06-7.6,8.91-8.94-.2-11.22-1.43-11.35-9-.23-13.59-.08-27.17-.08-40.76Z"/><path class="cls-4" d="M69.37,567.35c0,15-.24,30,.12,45.06.15,6-2.74,7.24-7.76,7.31-8.44.1-10.86-1.12-11-7.18-.22-14.81-.12-29.62-.13-44.44q0-22.85,0-45.68c0-7.3.69-7.9,8.24-7.9,8.62,0,10.24,1.26,10.26,8.4.06,14.81,0,29.62,0,44.43Z"/><path class="cls-5" d="M311.75,590.57c-2,17.57-1.73,35.35-5.12,52.78-.27,1.41-.68,2.79-1,4.19-.71,3.23-2,6-5.85,6.06s-5.84-2.25-7.12-5.67c-2.61-7-3.21-14.42-4.63-21.66-.47-2.38-.54-4.84-2.58-7.39-3,3.08-3,7.19-4.45,10.57-3.84,9.12-7.87,10.59-15.77,5.11-4.51-3.13-9.47-3.67-14.71-3.29-3.09.22-6.09,0-6-4.15s3.47-3.27,5.93-3.27c6.89,0,14-1.21,19.59,4.9,2.42,2.64,3.49-.57,4.18-2.23,1.42-3.41,2.35-7,3.74-10.43,1.52-3.71,4.17-6.1,8.5-5.86s5.86,3.3,7.09,6.71c2.74,7.58,2.71,15.76,5,23.92,3.1-3.48,2.45-7.63,2.73-11.22,1.6-19.89,2.83-39.81,4.09-59.72a72.09,72.09,0,0,1,2.59-16.41c.8-2.67,2.21-5,5.51-4.89,3,.11,4,2.44,4.88,4.84,2.48,6.91,2.39,14.19,2.84,21.34,1.56,24.84,2.76,49.71,4.21,74.56.21,3.52-.32,7.31,2.23,10.37a1.47,1.47,0,0,1,.44,1.58c.33-.14.16-.44.18-.65.13-1.56-.24-3.16.4-4.68,1.67-22.36,2-44.82,5.15-67.06a55,55,0,0,1,1.62-7.83c.76-2.58,1.77-5.26,5.17-5.27s5.07,2.17,5.86,5.27c2.15,8.41,2.62,17,3.42,25.64,1.25,13.44,1.73,27,4.65,40.32,2.8-6.62,2.61-13.75,3.89-20.6.86-4.63,1.35-9.35,2.4-13.94.87-3.81,3-6.89,7.43-7,4.6-.16,6.38,3.11,7.63,6.78,2.13,6.27,2.43,12.91,3.66,19.36.34,1.78.29,4.18,2.7,4.11,1.89-.06,2-2.21,2.35-3.84,1-4.4,2.14-8.78,3.3-13.15,1-3.77,3.3-6.14,7.37-6.27a8.35,8.35,0,0,1,8.71,5.57c1.23,3.05,2.26,6.18,3.45,9.24s2.92,3,4.8.54c1.11-1.47,2.09-3,3.22-4.51,3.32-4.26,7.27-5.85,12.37-3,5.76,3.25,12.09,3.58,18.53,3.56,2.6,0,6.55-1.33,6.9,3,.4,4.92-4.15,3.72-6.78,4.09-6.81,1-13.65.62-19.78-2.87-3.1-1.76-4.87-1-6.57,1.7a31.92,31.92,0,0,1-3.3,4.46c-5,5.43-11.66,4.65-15.3-1.74-.4-.71-.62-1.53-1.07-2.21-1.82-2.77-1-8.57-4.78-8.19-3.05.31-2.06,6-3.34,9.14-1,2.45-1.49,5.12-2.39,7.62a8.1,8.1,0,0,1-7.92,5.81,8,8,0,0,1-8.18-6.32c-1.72-6.75-2.9-13.65-4.31-20.49-.73-1-1.45-1-2.16,0-1.67,10.77-3.31,21.54-5,32.29a26,26,0,0,1-1.46,5.33c-1.13,2.89-3.08,4.81-6.48,4.74-3.17-.06-4.74-2.06-5.86-4.66-3.1-7.18-2.75-14.92-3.52-22.45-1.18-11.45-1.86-23-2.8-34.44-.06-.75-.45-1.47-1.81-2.22-.85,9.14-2,18.26-2.51,27.42-1,17.46-1.78,34.94-4.06,52.29a79.34,79.34,0,0,1-2.11,10.23,4.47,4.47,0,0,1-5.14,3.46c-2.47-.2-3.42-1.77-4.07-3.93a89.07,89.07,0,0,1-3.26-20.67c-1.48-26.09-2.77-52.19-4.14-78.29-.46-4.18-1.62-8.29-1.46-12.75-.7,1-.25,2-.39,2.87C312.43,581.57,312.14,586.08,311.75,590.57Z"/><path class="cls-6" d="M311.71,575.84a3.87,3.87,0,0,1-.16-1.19c.32-1.62-.9-4.35,1.45-4.53s2,2.54,2,4.21c.11,4.22.05,8.44.06,12.66-1.32-1.38-.85-3.25-1.31-4.86-1.3-1.75-1.15-3.75-.71-5.66C313.66,573.74,311.67,577,311.71,575.84Z"/><path class="cls-7" d="M311.71,575.84c.74,0,1.41-3,2.07-.31.51,2.07,0,4.39,0,6.6-2.2,2.45.37,6-2,8.44Q311.74,583.2,311.71,575.84Z"/><path class="cls-6" d="M328.61,656c.14,3.19.88,6.47-1.22,9.5-2.44-2.2,1-3.84.2-5.75C327.7,658.42,327.45,657,328.61,656Z"/><path class="cls-8" d="M367.31,617.89c-.19-1.33-.83-3.21,1.33-3,1.36.1,1,1.86.83,3Z"/></svg>