<svg id="Layer_1" data-name="Layer 1" xmlns="http://www.w3.org/2000/svg" viewBox="0 0 1400 1700"><defs><style>.cls-1{fill:#fbaa1d;}.cls-2{fill:#046c60;}</style></defs><path class="cls-1" d="M1400,1700H-135.48V-377.16A2028.36,2028.36,0,0,0,9.69,17.11C85.24,170.56,168.56,289.46,238.69,376A1308.32,1308.32,0,0,0,396.23,531.32c42.32,35.09,106.5,88.32,189.92,128,19.64,9.34,52.93,23.92,89.5,38.12,45,17.46,54.23,18.58,87.39,31.08a878.3,878.3,0,0,1,149.51,73.32c11.93,7.37,53.51,33.51,103.71,75.65,25.07,21,72.57,61.33,124.24,124.93,57.84,71.18,90.58,134.23,123.19,197.06,25.08,48.3,39.15,83.31,45.28,99.11,9.25,23.89,16.22,44.86,20,56.31,6,18.08,13.77,41.75,21.59,72.14,4.08,15.86,5.65,23.77,15.26,69.79,16.32,78.12,15.13,71.36,16.85,80.35C1388.21,1606.07,1395.09,1647.63,1400,1700Z"/><path class="cls-2" d="M1400,1700H0V0A1554.13,1554.13,0,0,0,132.36,322.68a1555,1555,0,0,0,208.8,293.76A1143.48,1143.48,0,0,0,484.8,743.52C523.38,772.24,581.9,815.8,658,848.28c17.91,7.65,48.26,19.58,81.6,31.2,41,14.29,49.45,15.2,79.68,25.44a840.78,840.78,0,0,1,136.32,60,830.26,830.26,0,0,1,94.56,61.92c22.86,17.23,66.17,50.2,113.28,102.24,52.74,58.26,82.58,109.86,112.32,161.28,22.86,39.53,35.7,68.19,41.28,81.12,8.44,19.55,14.79,36.71,18.24,46.08,5.45,14.8,12.55,34.17,19.68,59,3.72,13,5.16,19.46,13.92,57.12,14.87,63.94,13.79,58.41,15.36,65.76A955.14,955.14,0,0,1,1400,1700Z"/></svg>